<svg width="400" height="400" viewBox="0 0 400 400" fill="none" xmlns="http://www.w3.org/2000/svg">
<rect width="400" height="400" fill="white"/>
<g opacity="0.1">
<path d="M340.072 229.591L326.419 217.98L317.033 215.853L317.769 212.606L327.155 214.732L344.487 210.105L343.67 213.709L329.681 216.993L340.888 225.986L340.072 229.591Z" fill="#DDBE90"/>
<path d="M325.348 234.111C327.194 235 328.63 236.151 329.655 237.565C330.702 238.99 331.298 240.535 331.444 242.203C331.578 243.892 331.259 245.539 330.487 247.143C329.725 248.726 328.723 249.936 327.481 250.773C326.239 251.61 324.964 252.066 323.656 252.14L326.953 253.727L325.493 256.761L307.424 248.064L308.884 245.031L312.247 246.65C311.478 245.548 311.027 244.235 310.895 242.709C310.774 241.216 311.089 239.689 311.84 238.129C312.613 236.524 313.707 235.264 315.122 234.348C316.538 233.431 318.14 232.944 319.928 232.884C321.717 232.824 323.523 233.233 325.348 234.111ZM317.951 249.395C319.314 250.051 320.634 250.347 321.909 250.284C323.185 250.221 324.314 249.844 325.296 249.153C326.29 248.494 327.057 247.604 327.597 246.483C328.136 245.362 328.364 244.213 328.281 243.036C328.198 241.859 327.783 240.752 327.036 239.716C326.289 238.68 325.235 237.834 323.872 237.178C322.487 236.511 321.146 236.204 319.848 236.257C318.572 236.319 317.438 236.68 316.444 237.339C315.472 238.008 314.716 238.904 314.177 240.025C313.637 241.146 313.409 242.295 313.492 243.472C313.587 244.682 314.007 245.805 314.754 246.841C315.523 247.888 316.589 248.739 317.951 249.395Z" fill="#DDBE90"/>
<path d="M300.929 260.709C301.838 259.469 302.859 258.509 303.993 257.828C305.147 257.162 306.307 256.817 307.473 256.795C308.659 256.787 309.765 257.114 310.792 257.776L308.759 260.55C307.894 260.037 306.961 259.928 305.959 260.222C304.943 260.536 304.031 261.243 303.223 262.345C302.473 263.368 302.108 264.341 302.128 265.263C302.148 266.185 302.502 266.898 303.191 267.403C303.899 267.922 304.651 267.989 305.447 267.605C306.263 267.235 307.321 266.513 308.622 265.44C309.816 264.471 310.852 263.718 311.73 263.181C312.612 262.679 313.57 262.383 314.604 262.294C315.642 262.238 316.683 262.593 317.726 263.357C318.552 263.963 319.129 264.764 319.457 265.761C319.786 266.758 319.815 267.853 319.545 269.046C319.294 270.254 318.744 271.438 317.893 272.599C316.58 274.39 315.068 275.504 313.355 275.943C311.642 276.381 309.97 276.063 308.339 274.988L310.307 272.302C311.196 272.863 312.128 273.016 313.101 272.762C314.059 272.527 314.921 271.888 315.685 270.845C316.392 269.881 316.748 268.962 316.753 268.089C316.758 267.215 316.426 266.533 315.757 266.043C315.226 265.654 314.661 265.496 314.061 265.571C313.467 265.68 312.874 265.911 312.283 266.264C311.697 266.651 310.937 267.213 310.003 267.95C308.838 268.88 307.831 269.594 306.982 270.091C306.153 270.603 305.246 270.891 304.262 270.955C303.262 271.04 302.263 270.731 301.265 270.03C300.38 269.381 299.763 268.55 299.416 267.539C299.068 266.528 299.019 265.419 299.269 264.211C299.525 263.037 300.078 261.87 300.929 260.709Z" fill="#DDBE90"/>
<path d="M288.135 278.094C289.253 277.039 290.431 276.28 291.67 275.815C292.925 275.369 294.128 275.24 295.279 275.428C296.447 275.635 297.475 276.157 298.366 276.994L295.864 279.354C295.106 278.694 294.209 278.417 293.17 278.525C292.114 278.65 291.089 279.181 290.095 280.118C289.172 280.989 288.637 281.879 288.49 282.79C288.343 283.7 288.562 284.466 289.148 285.087C289.751 285.726 290.478 285.928 291.331 285.694C292.2 285.478 293.371 284.959 294.845 284.139C296.195 283.402 297.35 282.849 298.31 282.48C299.269 282.145 300.264 282.028 301.297 282.127C302.329 282.26 303.288 282.797 304.175 283.738C304.878 284.483 305.301 285.375 305.443 286.415C305.586 287.454 305.416 288.537 304.935 289.662C304.47 290.804 303.714 291.87 302.668 292.857C301.053 294.381 299.364 295.203 297.6 295.325C295.836 295.446 294.249 294.83 292.839 293.478L295.261 291.192C296.034 291.905 296.922 292.224 297.925 292.15C298.91 292.092 299.873 291.62 300.814 290.733C301.683 289.912 302.199 289.073 302.362 288.215C302.525 287.357 302.322 286.626 301.753 286.023C301.301 285.544 300.774 285.287 300.171 285.252C299.567 285.252 298.942 285.372 298.296 285.612C297.65 285.886 296.801 286.302 295.749 286.858C294.434 287.562 293.315 288.081 292.391 288.417C291.483 288.77 290.539 288.889 289.559 288.775C288.56 288.677 287.634 288.192 286.779 287.322C286.026 286.523 285.57 285.595 285.411 284.538C285.251 283.481 285.404 282.381 285.869 281.238C286.333 280.13 287.088 279.082 288.135 278.094Z" fill="#DDBE90"/>
<path d="M284.204 305.882C284.22 307.204 283.863 308.52 283.135 309.829C282.398 311.171 281.283 312.282 279.792 313.163C278.259 314.069 276.655 314.52 274.982 314.517C273.287 314.527 271.686 314.07 270.178 313.148C268.682 312.246 267.413 310.913 266.371 309.149C265.341 307.406 264.78 305.641 264.687 303.853C264.595 302.066 264.955 300.422 265.769 298.922C266.562 297.434 267.725 296.237 269.258 295.331C270.728 294.462 272.223 294.019 273.742 294C275.252 294.014 276.593 294.341 277.764 294.981L271.045 283.607L273.912 281.914L288.95 307.371L286.083 309.064L284.204 305.882ZM269.301 307.418C270.07 308.72 271.003 309.7 272.098 310.356C273.194 311.012 274.343 311.325 275.544 311.295C276.724 311.278 277.849 310.953 278.92 310.321C279.971 309.7 280.792 308.861 281.385 307.802C281.97 306.777 282.243 305.609 282.206 304.3C282.16 303.023 281.759 301.744 281.002 300.463C280.233 299.161 279.294 298.171 278.186 297.494C277.069 296.851 275.914 296.527 274.722 296.523C273.521 296.552 272.396 296.877 271.345 297.498C270.274 298.13 269.446 298.959 268.862 299.985C268.269 301.043 267.995 302.211 268.041 303.487C268.099 304.785 268.519 306.095 269.301 307.418Z" fill="#DDBE90"/>
<path d="M248.251 307.79C250.042 307.224 251.799 307.116 253.522 307.467C255.221 307.825 256.725 308.616 258.033 309.84C259.325 311.094 260.284 312.71 260.909 314.687C261.527 316.641 261.653 318.494 261.286 320.248C260.904 322.032 260.105 323.551 258.889 324.805C257.681 326.083 256.17 327.008 254.356 327.582C252.542 328.156 250.773 328.267 249.05 327.917C247.335 327.589 245.823 326.813 244.515 325.59C243.184 324.373 242.206 322.776 241.58 320.799C240.955 318.822 240.845 316.938 241.251 315.146C241.641 313.386 242.452 311.863 243.683 310.578C244.914 309.293 246.437 308.364 248.251 307.79ZM249.134 310.581C247.994 310.942 247.009 311.548 246.178 312.399C245.347 313.25 244.798 314.306 244.531 315.568C244.242 316.836 244.34 318.238 244.825 319.773C245.311 321.308 246.025 322.515 246.968 323.394C247.911 324.273 248.952 324.813 250.091 325.016C251.237 325.242 252.38 325.175 253.519 324.815C254.682 324.447 255.668 323.841 256.476 322.997C257.267 322.184 257.785 321.15 258.028 319.897C258.271 318.643 258.15 317.248 257.665 315.713C257.172 314.155 256.477 312.929 255.581 312.035C254.661 311.149 253.639 310.589 252.517 310.356C251.401 310.146 250.273 310.221 249.134 310.581Z" fill="#DDBE90"/>
<path d="M231.951 330.797C231.586 332.032 230.934 333.06 229.996 333.88C229.033 334.705 227.784 335.261 226.249 335.548L225.618 332.166L226.481 332.005C230.15 331.32 231.613 328.987 230.869 325.006L228.867 314.287L232.141 313.675L235.822 333.387L232.549 333.999L231.951 330.797Z" fill="#DDBE90"/>
<path d="M215.02 334.269L214.291 322.472C214.231 321.498 213.981 320.817 213.542 320.429C213.104 320.065 212.373 319.915 211.351 319.978L208.904 320.129L208.73 317.317L211.725 317.132C213.575 317.017 214.989 317.358 215.967 318.153C216.945 318.948 217.494 320.319 217.615 322.267L218.344 334.064L220.937 333.904L221.106 336.643L218.513 336.803L218.825 341.843L215.501 342.049L215.19 337.009L209.967 337.331L209.798 334.592L215.02 334.269Z" fill="#DDBE90"/>
<path d="M169.696 339.938L181.358 326.329L183.521 316.951L186.766 317.7L184.603 327.077L189.165 344.427L185.563 343.597L182.333 329.596L173.297 340.768L169.696 339.938Z" fill="#DDBE90"/>
<path d="M165.255 325.174C164.359 327.018 163.202 328.449 161.785 329.469C160.356 330.511 158.808 331.101 157.141 331.24C155.451 331.369 153.805 331.044 152.203 330.265C150.624 329.498 149.417 328.491 148.585 327.246C147.752 326.001 147.302 324.724 147.232 323.416L145.633 326.707L142.605 325.236L151.368 307.199L154.396 308.67L152.765 312.028C153.869 311.262 155.184 310.816 156.71 310.69C158.204 310.575 159.73 310.895 161.287 311.652C162.889 312.431 164.146 313.529 165.056 314.948C165.967 316.367 166.449 317.971 166.502 319.76C166.555 321.548 166.139 323.353 165.255 325.174ZM149.999 317.722C149.338 319.082 149.036 320.4 149.094 321.676C149.153 322.952 149.525 324.082 150.213 325.067C150.868 326.064 151.755 326.834 152.874 327.377C153.993 327.921 155.142 328.154 156.319 328.075C157.496 327.996 158.605 327.585 159.644 326.842C160.683 326.099 161.533 325.048 162.194 323.687C162.865 322.305 163.177 320.965 163.13 319.667C163.072 318.391 162.715 317.255 162.06 316.259C161.394 315.284 160.502 314.525 159.383 313.982C158.264 313.438 157.115 313.205 155.938 313.284C154.728 313.374 153.603 313.791 152.564 314.534C151.515 315.299 150.66 316.361 149.999 317.722Z" fill="#DDBE90"/>
<path d="M138.795 300.663C140.031 301.576 140.987 302.601 141.664 303.738C142.326 304.894 142.667 306.056 142.685 307.222C142.689 308.407 142.358 309.512 141.692 310.537L138.925 308.493C139.441 307.631 139.554 306.698 139.263 305.695C138.953 304.678 138.249 303.763 137.15 302.951C136.13 302.198 135.158 301.829 134.236 301.845C133.314 301.862 132.6 302.214 132.092 302.9C131.571 303.607 131.5 304.359 131.882 305.156C132.249 305.973 132.967 307.034 134.035 308.339C135 309.537 135.749 310.575 136.283 311.455C136.782 312.339 137.074 313.298 137.16 314.332C137.211 315.371 136.853 316.41 136.085 317.45C135.476 318.274 134.673 318.849 133.675 319.173C132.677 319.497 131.582 319.523 130.389 319.248C129.182 318.994 128 318.439 126.842 317.584C125.057 316.265 123.948 314.748 123.516 313.034C123.084 311.319 123.408 309.648 124.489 308.021L127.168 309.999C126.603 310.886 126.446 311.817 126.698 312.791C126.929 313.75 127.565 314.614 128.605 315.382C129.566 316.093 130.484 316.452 131.357 316.46C132.231 316.468 132.914 316.139 133.406 315.472C133.798 314.942 133.957 314.377 133.884 313.778C133.778 313.183 133.549 312.59 133.198 311.997C132.813 311.409 132.254 310.647 131.52 309.711C130.594 308.542 129.884 307.532 129.39 306.682C128.882 305.851 128.597 304.943 128.536 303.958C128.455 302.959 128.768 301.961 129.473 300.965C130.125 300.082 130.957 299.469 131.97 299.125C132.982 298.781 134.092 298.736 135.299 298.991C136.472 299.251 137.637 299.808 138.795 300.663Z" fill="#DDBE90"/>
<path d="M121.492 287.821C122.542 288.943 123.298 290.124 123.758 291.364C124.2 292.621 124.324 293.825 124.131 294.975C123.921 296.142 123.395 297.169 122.555 298.056L120.204 295.545C120.867 294.79 121.146 293.893 121.042 292.855C120.922 291.798 120.394 290.771 119.46 289.774C118.593 288.848 117.705 288.31 116.795 288.159C115.885 288.009 115.119 288.225 114.495 288.809C113.854 289.409 113.649 290.136 113.88 290.989C114.094 291.859 114.607 293.032 115.422 294.509C116.155 295.862 116.704 297.019 117.069 297.98C117.4 298.94 117.514 299.936 117.411 300.968C117.274 301.999 116.734 302.957 115.79 303.841C115.042 304.541 114.148 304.961 113.108 305.099C112.068 305.238 110.986 305.064 109.863 304.579C108.722 304.11 107.66 303.35 106.676 302.3C105.158 300.68 104.342 298.988 104.227 297.223C104.112 295.459 104.734 293.874 106.091 292.469L108.368 294.899C107.652 295.67 107.33 296.557 107.4 297.56C107.454 298.546 107.923 299.51 108.807 300.454C109.624 301.326 110.462 301.846 111.319 302.012C112.177 302.178 112.908 301.977 113.514 301.41C113.994 300.96 114.253 300.434 114.29 299.831C114.293 299.227 114.175 298.602 113.937 297.955C113.665 297.308 113.253 296.457 112.7 295.404C112.001 294.086 111.486 292.965 111.154 292.039C110.804 291.13 110.688 290.186 110.806 289.206C110.908 288.208 111.395 287.284 112.269 286.432C113.07 285.681 114 285.229 115.058 285.073C116.116 284.918 117.215 285.075 118.356 285.544C119.463 286.011 120.508 286.77 121.492 287.821Z" fill="#DDBE90"/>
<path d="M93.7785 283.874C92.4563 283.885 91.1421 283.524 89.8361 282.791C88.4966 282.049 87.3892 280.931 86.5137 279.436C85.6136 277.899 85.1681 276.294 85.1774 274.621C85.1743 272.926 85.6367 271.327 86.5646 269.822C87.4715 268.329 88.809 267.065 90.5772 266.029C92.3243 265.006 94.0916 264.451 95.879 264.366C97.6665 264.28 99.309 264.646 100.807 265.466C102.292 266.264 103.485 267.431 104.385 268.967C105.248 270.441 105.686 271.937 105.699 273.456C105.679 274.966 105.347 276.306 104.703 277.475L116.102 270.798L117.785 273.671L92.2726 288.616L90.5895 285.742L93.7785 283.874ZM92.2973 268.966C90.9922 269.73 90.0097 270.659 89.3497 271.753C88.6896 272.846 88.3721 273.993 88.3972 275.195C88.4099 276.375 88.7306 277.501 89.3595 278.575C89.976 279.627 90.8125 280.452 91.869 281.049C92.892 281.637 94.0585 281.915 95.3685 281.883C96.645 281.842 97.9253 281.445 99.2093 280.693C100.514 279.929 101.507 278.993 102.188 277.888C102.836 276.773 103.164 275.62 103.173 274.427C103.148 273.226 102.827 272.1 102.21 271.047C101.581 269.974 100.755 269.143 99.7323 268.555C98.6759 267.958 97.5094 267.68 96.2329 267.721C94.9353 267.774 93.6234 268.189 92.2973 268.966Z" fill="#DDBE90"/>
<path d="M91.9803 247.896C92.5398 249.689 92.641 251.446 92.2838 253.167C91.9193 254.866 91.1227 256.366 89.8939 257.67C88.6346 258.957 87.0152 259.91 85.0357 260.528C83.0796 261.138 81.2255 261.257 79.4734 260.883C77.6909 260.494 76.1748 259.69 74.9251 258.47C73.6522 257.257 72.7324 255.742 72.1655 253.926C71.5987 252.109 71.4938 250.34 71.8511 248.619C72.185 246.905 72.9664 245.396 74.1951 244.092C75.4167 242.766 77.0171 241.793 78.9966 241.176C80.976 240.558 82.8607 240.455 84.6505 240.868C86.4098 241.264 87.9295 242.081 89.2097 243.317C90.4899 244.553 91.4134 246.079 91.9803 247.896ZM89.1857 248.768C88.8297 247.627 88.2275 246.639 87.3794 245.805C86.5313 244.97 85.4772 244.418 84.217 244.147C82.9496 243.852 81.5474 243.945 80.0104 244.424C78.4734 244.904 77.2638 245.614 76.3815 246.553C75.4992 247.493 74.9545 248.532 74.7474 249.67C74.517 250.815 74.5799 251.958 74.936 253.1C75.2994 254.264 75.9015 255.252 76.7423 256.062C77.5526 256.857 78.5842 257.379 79.8371 257.627C81.09 257.875 82.4849 257.759 84.0219 257.279C85.5822 256.792 86.8107 256.102 87.7075 255.209C88.5971 254.292 89.1607 253.273 89.3983 252.151C89.6127 251.037 89.5418 249.909 89.1857 248.768Z" fill="#DDBE90"/>
<path d="M69.0591 231.673C67.826 231.303 66.8009 230.648 65.9839 229.706C65.1625 228.74 64.6115 227.489 64.3307 225.953L67.7143 225.335L67.8723 226.199C68.5435 229.87 70.8709 231.342 74.8545 230.614L85.5814 228.652L86.1802 231.928L66.4543 235.534L65.8555 232.259L69.0591 231.673Z" fill="#DDBE90"/>
<path d="M65.6228 214.698L77.4225 214.015C78.3967 213.958 79.0788 213.711 79.4688 213.273C79.8345 212.837 79.9877 212.107 79.9284 211.084L79.7866 208.636L82.5995 208.473L82.7731 211.469C82.8803 213.32 82.5346 214.733 81.7358 215.708C80.937 216.682 79.5634 217.226 77.6151 217.339L65.8154 218.023L65.9657 220.617L63.2259 220.775L63.0756 218.182L58.0342 218.474L57.8416 215.149L62.8829 214.857L62.5803 209.633L65.3201 209.474L65.6228 214.698Z" fill="#DDBE90"/>
<path d="M60.0718 169.359L73.636 181.073L83.0055 183.271L82.245 186.513L72.8755 184.315L55.5084 188.81L56.3525 185.212L70.3659 182.035L59.2276 172.957L60.0718 169.359Z" fill="#DDBE90"/>
<path d="M74.7645 165.058C72.9247 164.156 71.4974 162.994 70.4828 161.573C69.4463 160.141 68.8616 158.59 68.7288 156.922C68.6068 155.232 68.9378 153.587 69.722 151.989C70.4954 150.412 71.5063 149.209 72.7547 148.381C74.003 147.553 75.2815 147.107 76.5902 147.043L73.3048 145.431L74.7873 142.409L92.7913 151.239L91.3088 154.261L87.9577 152.618C88.719 153.725 89.1601 155.042 89.2809 156.568C89.3905 158.062 89.064 159.587 88.3013 161.142C87.5171 162.74 86.4139 163.993 84.9916 164.898C83.5693 165.804 81.9637 166.28 80.1748 166.326C78.3858 166.373 76.5824 165.95 74.7645 165.058ZM82.274 149.83C80.916 149.164 79.599 148.858 78.3229 148.911C77.0468 148.965 75.915 149.334 74.9274 150.018C73.9287 150.669 73.1554 151.553 72.6075 152.67C72.0597 153.787 71.823 154.935 71.8975 156.112C71.972 157.29 72.3787 158.4 73.1176 159.441C73.8566 160.483 74.9051 161.337 76.263 162.003C77.6429 162.68 78.9818 162.997 80.2798 162.954C81.5559 162.901 82.6933 162.548 83.6921 161.897C84.6689 161.235 85.4313 160.345 85.9791 159.228C86.527 158.111 86.7636 156.964 86.6892 155.786C86.6035 154.576 86.1912 153.45 85.4522 152.408C84.6914 151.356 83.6319 150.496 82.274 149.83Z" fill="#DDBE90"/>
<path d="M99.3313 138.66C98.4136 139.892 97.3852 140.845 96.246 141.518C95.0871 142.176 93.9247 142.512 92.7587 142.526C91.5731 142.525 90.4692 142.19 89.447 141.521L91.5007 138.761C92.3614 139.28 93.2937 139.396 94.2977 139.11C95.3163 138.804 96.2335 138.102 97.0491 137.007C97.8066 135.989 98.1787 135.019 98.1656 134.097C98.1525 133.175 97.8034 132.459 97.1185 131.949C96.414 131.425 95.6623 131.352 94.8636 131.731C94.0452 132.095 92.9817 132.808 91.6732 133.872C90.4715 134.833 89.4301 135.578 88.549 136.108C87.6628 136.604 86.7027 136.893 85.6686 136.975C84.6295 137.023 83.5914 136.661 82.5542 135.889C81.7323 135.277 81.161 134.471 80.8402 133.472C80.5194 132.473 80.4983 131.378 80.7769 130.187C81.036 128.98 81.5952 127.8 82.4546 126.646C83.7801 124.865 85.3007 123.761 87.0166 123.335C88.7325 122.91 90.4023 123.24 92.0262 124.327L90.0379 126.998C89.1528 126.431 88.2227 126.271 87.2478 126.518C86.2875 126.746 85.4213 127.379 84.6493 128.416C83.9356 129.375 83.573 130.291 83.5616 131.164C83.5501 132.038 83.8771 132.722 84.5424 133.217C85.0708 133.611 85.6349 133.772 86.2348 133.701C86.8297 133.597 87.4241 133.37 88.0181 133.022C88.607 132.639 89.371 132.082 90.31 131.352C91.4825 130.43 92.4948 129.724 93.3468 129.233C94.1793 128.728 95.0882 128.446 96.0735 128.389C97.0735 128.312 98.07 128.628 99.063 129.337C99.9436 129.992 100.554 130.827 100.894 131.84C101.235 132.854 101.275 133.964 101.016 135.17C100.752 136.342 100.191 137.505 99.3313 138.66Z" fill="#DDBE90"/>
<path d="M112.099 121.461C110.973 122.508 109.79 123.259 108.548 123.714C107.289 124.152 106.085 124.272 104.935 124.075C103.769 123.86 102.744 123.33 101.86 122.487L104.379 120.145C105.132 120.811 106.028 121.094 107.067 120.993C108.124 120.876 109.153 120.353 110.153 119.423C111.082 118.559 111.624 117.672 111.778 116.763C111.932 115.854 111.718 115.086 111.136 114.461C110.538 113.818 109.812 113.61 108.958 113.838C108.088 114.048 106.913 114.558 105.433 115.367C104.078 116.095 102.919 116.639 101.956 117.001C100.995 117.329 99.9982 117.439 98.9664 117.333C97.9358 117.192 96.9803 116.648 96.0999 115.701C95.4022 114.951 94.9859 114.055 94.8512 113.015C94.7164 111.974 94.8938 110.893 95.3833 109.772C95.8563 108.632 96.6198 107.573 97.6738 106.592C99.2996 105.081 100.995 104.271 102.759 104.162C104.524 104.054 106.106 104.681 107.507 106.044L105.068 108.311C104.3 107.593 103.415 107.267 102.411 107.334C101.425 107.385 100.459 107.85 99.5121 108.731C98.6367 109.545 98.1144 110.38 97.9451 111.237C97.7759 112.094 97.9737 112.826 98.5385 113.434C98.987 113.916 99.5126 114.177 100.115 114.216C100.719 114.221 101.345 114.105 101.992 113.87C102.641 113.6 103.493 113.191 104.548 112.642C105.868 111.948 106.991 111.436 107.918 111.108C108.828 110.761 109.773 110.649 110.753 110.771C111.75 110.876 112.673 111.367 113.521 112.243C114.269 113.047 114.718 113.979 114.87 115.037C115.021 116.095 114.861 117.194 114.388 118.334C113.916 119.439 113.153 120.481 112.099 121.461Z" fill="#DDBE90"/>
<path d="M116.672 93.2701C116.671 91.9478 117.042 90.6363 117.785 89.3357C118.537 88.0018 119.663 86.9026 121.164 86.0381C122.707 85.1494 124.315 84.7157 125.989 84.7373C127.683 84.7467 129.28 85.2209 130.778 86.1599C132.263 87.0777 133.518 88.4245 134.54 90.2003C135.551 91.9549 136.092 93.7262 136.165 95.5142C136.238 97.3023 135.859 98.9421 135.029 100.434C134.22 101.913 133.044 103.097 131.501 103.986C130.021 104.838 128.521 105.265 127.003 105.267C125.492 105.236 124.155 104.894 122.991 104.242L129.584 115.689L126.699 117.351L111.942 91.7293L114.828 90.0674L116.672 93.2701ZM131.591 91.8987C130.836 90.588 129.915 89.5987 128.826 88.9306C127.738 88.2626 126.593 87.9366 125.392 87.9528C124.211 87.9568 123.082 88.2693 122.004 88.8902C120.947 89.4989 120.116 90.3293 119.512 91.3814C118.916 92.4001 118.63 93.5645 118.652 94.8746C118.684 96.1514 119.071 97.4346 119.814 98.7241C120.568 100.035 121.496 101.035 122.597 101.724C123.707 102.38 124.858 102.716 126.05 102.733C127.251 102.717 128.38 102.405 129.437 101.796C130.515 101.175 131.352 100.355 131.948 99.3366C132.552 98.2845 132.839 97.1201 132.807 95.8433C132.764 94.5454 132.358 93.2305 131.591 91.8987Z" fill="#DDBE90"/>
<path d="M152.187 91.8878C150.392 92.4406 148.634 92.5352 146.914 92.1715C145.217 91.8006 143.72 90.9983 142.421 89.7646C141.138 88.5004 140.192 86.8774 139.581 84.8956C138.978 82.9372 138.867 81.0827 139.247 79.332C139.643 77.551 140.453 76.0379 141.678 74.7929C142.895 73.5246 144.413 72.6104 146.232 72.0505C148.05 71.4905 149.82 71.3923 151.54 71.7561C153.253 72.0965 154.759 72.8835 156.057 74.1172C157.38 75.3437 158.346 76.9479 158.956 78.9296C159.566 80.9114 159.662 82.7964 159.242 84.5847C158.839 86.3425 158.017 87.8591 156.776 89.1346C155.535 90.4101 154.006 91.3279 152.187 91.8878ZM151.326 89.0901C152.468 88.7383 153.458 88.1399 154.295 87.295C155.133 86.45 155.69 85.398 155.965 84.1388C156.265 82.8725 156.177 81.4699 155.704 79.9312C155.23 78.3924 154.525 77.1801 153.588 76.2943C152.652 75.4084 151.615 74.8598 150.478 74.6484C149.333 74.4137 148.19 74.4722 147.048 74.824C145.882 75.183 144.892 75.7814 144.078 76.6191C143.28 77.4264 142.755 78.456 142.502 79.708C142.249 80.96 142.36 82.3553 142.834 83.8941C143.315 85.4562 144 86.6874 144.89 87.5875C145.803 88.4805 146.82 89.048 147.941 89.2899C149.055 89.5085 150.183 89.4418 151.326 89.0901Z" fill="#DDBE90"/>
<path d="M168.309 69.0265C168.684 67.7948 169.344 66.7722 170.288 65.9588C171.257 65.1412 172.51 64.5949 174.047 64.32L174.653 67.706L173.788 67.8606C170.114 68.5178 168.634 70.8396 169.347 74.8259L171.267 85.5602L167.989 86.1465L164.458 66.407L167.736 65.8206L168.309 69.0265Z" fill="#DDBE90"/>
<path d="M185.435 65.5912L186.074 77.3934C186.126 78.3678 186.371 79.0509 186.807 79.4426C187.243 79.81 187.972 79.966 188.995 79.9106L191.443 79.7783L191.595 82.5918L188.599 82.7538C186.747 82.8539 185.336 82.5027 184.364 81.7002C183.392 80.8976 182.854 79.522 182.748 77.5732L182.11 65.771L179.516 65.9113L179.368 63.1708L181.962 63.0306L181.689 57.9881L185.014 57.8083L185.287 62.8508L190.512 62.5682L190.66 65.3087L185.435 65.5912Z" fill="#DDBE90"/>
<path d="M230.896 60.1436L219.13 73.6631L216.896 83.0242L213.657 82.2513L215.891 72.8902L211.462 55.5062L215.057 56.364L218.181 70.3893L227.301 59.2857L230.896 60.1436Z" fill="#DDBE90"/>
<path d="M235.174 74.8182C236.083 72.9818 237.25 71.5589 238.675 70.5495C240.111 69.5183 241.664 68.9394 243.333 68.8128C245.023 68.697 246.666 69.0341 248.262 69.8243C249.836 70.6035 251.035 71.6189 251.858 72.8703C252.682 74.1217 253.123 75.4018 253.183 76.7108L254.806 73.4314L257.823 74.925L248.926 92.8961L245.909 91.4025L247.565 88.0575C246.456 88.8147 245.137 89.2509 243.61 89.366C242.116 89.4701 240.593 89.1379 239.04 88.3694C237.444 87.5793 236.196 86.4715 235.296 85.0458C234.396 83.6202 233.926 82.0128 233.886 80.2237C233.846 78.4347 234.275 76.6328 235.174 74.8182ZM250.374 82.3841C251.045 81.0287 251.356 79.7128 251.308 78.4365C251.259 77.1602 250.894 76.0271 250.214 75.0369C249.566 74.0358 248.685 73.2592 247.57 72.7072C246.455 72.1552 245.309 71.9143 244.131 71.9844C242.953 72.0545 241.841 72.4571 240.797 73.1922C239.752 73.9273 238.895 74.9726 238.224 76.3281C237.542 77.7054 237.22 79.0432 237.258 80.3413C237.306 81.6176 237.655 82.7563 238.302 83.7575C238.961 84.7367 239.847 85.5024 240.962 86.0544C242.077 86.6064 243.224 86.8473 244.402 86.7772C245.613 86.696 246.74 86.2879 247.785 85.5528C248.84 84.7959 249.703 83.7396 250.374 82.3841Z" fill="#DDBE90"/>
<path d="M261.557 99.4964C260.327 98.5743 259.378 97.5424 258.71 96.4007C258.056 95.2395 257.724 94.0758 257.715 92.9098C257.719 91.7241 258.058 90.6215 258.732 89.6018L261.484 91.6656C260.962 92.5243 260.842 93.4562 261.125 94.4613C261.427 95.481 262.125 96.4007 263.218 97.2203C264.233 97.9815 265.201 98.3571 266.124 98.3474C267.046 98.3376 267.763 97.9912 268.275 97.3081C268.802 96.6056 268.878 95.8542 268.502 95.054C268.141 94.2343 267.431 93.1683 266.372 91.8558C265.416 90.6507 264.674 89.6066 264.147 88.7235C263.655 87.8355 263.369 86.8744 263.291 85.84C263.247 84.8008 263.613 83.764 264.389 82.7296C265.004 81.9099 265.811 81.3415 266.811 81.0244C267.812 80.7072 268.907 80.6901 270.097 80.9731C271.303 81.2366 272.481 81.8001 273.632 82.6637C275.408 83.9956 276.506 85.5203 276.926 87.2378C277.345 88.9552 277.009 90.6238 275.916 92.2437L273.252 90.2457C273.823 89.3626 273.986 88.4331 273.742 87.4573C273.518 86.4962 272.888 85.6277 271.854 84.8519C270.898 84.1347 269.983 83.7688 269.109 83.7542C268.236 83.7395 267.551 84.064 267.053 84.7276C266.658 85.2545 266.494 85.818 266.563 86.4181C266.665 87.0134 266.89 87.6086 267.236 88.2039C267.616 88.7942 268.17 89.5602 268.897 90.5019C269.815 91.6777 270.517 92.6926 271.005 93.5464C271.508 94.3807 271.786 95.2906 271.839 96.2762C271.913 97.2764 271.593 98.2717 270.881 99.2622C270.222 100.14 269.385 100.748 268.37 101.085C267.356 101.421 266.246 101.458 265.04 101.194C263.869 100.926 262.708 100.36 261.557 99.4964Z" fill="#DDBE90"/>
<path d="M279.281 112.861C278.242 111.728 277.5 110.539 277.054 109.293C276.625 108.031 276.514 106.826 276.719 105.679C276.943 104.514 277.479 103.493 278.329 102.615L280.653 105.151C279.982 105.899 279.692 106.792 279.785 107.832C279.894 108.89 280.41 109.923 281.333 110.93C282.19 111.866 283.073 112.413 283.981 112.574C284.889 112.734 285.658 112.526 286.287 111.949C286.935 111.356 287.148 110.631 286.926 109.776C286.723 108.904 286.221 107.725 285.423 106.24C284.705 104.879 284.169 103.716 283.814 102.751C283.493 101.787 283.39 100.79 283.504 99.7587C283.653 98.7292 284.204 97.7776 285.157 96.9041C285.912 96.2119 286.811 95.8022 287.852 95.6749C288.894 95.5477 289.973 95.733 291.091 96.2307C292.227 96.7119 293.281 97.4831 294.254 98.5442C295.754 100.181 296.551 101.882 296.647 103.647C296.743 105.413 296.104 106.991 294.731 108.381L292.481 105.926C293.205 105.163 293.537 104.28 293.478 103.276C293.434 102.29 292.976 101.32 292.102 100.367C291.295 99.4856 290.463 98.9572 289.607 98.7818C288.752 98.6063 288.018 98.7988 287.407 99.3591C286.921 99.8041 286.656 100.328 286.613 100.93C286.604 101.534 286.715 102.161 286.945 102.81C287.21 103.46 287.613 104.315 288.154 105.375C288.839 106.699 289.342 107.826 289.664 108.756C290.004 109.668 290.11 110.614 289.981 111.592C289.868 112.589 289.371 113.508 288.488 114.35C287.678 115.092 286.744 115.535 285.684 115.678C284.625 115.822 283.527 115.653 282.391 115.172C281.29 114.692 280.253 113.922 279.281 112.861Z" fill="#DDBE90"/>
<path d="M306.96 117.047C308.282 117.05 309.592 117.426 310.89 118.174C312.221 118.93 313.316 120.061 314.175 121.565C315.058 123.111 315.486 124.721 315.458 126.395C315.443 128.089 314.963 129.684 314.018 131.178C313.095 132.66 311.743 133.91 309.964 134.926C308.206 135.93 306.432 136.465 304.644 136.531C302.856 136.597 301.217 136.212 299.729 135.377C298.253 134.562 297.073 133.382 296.19 131.835C295.343 130.353 294.921 128.852 294.925 127.333C294.961 125.823 295.308 124.487 295.965 123.325L284.494 129.876L282.843 126.984L308.518 112.322L310.17 115.214L306.96 117.047ZM308.276 131.971C309.59 131.221 310.583 130.303 311.255 129.216C311.927 128.13 312.257 126.987 312.245 125.785C312.245 124.605 311.937 123.475 311.32 122.395C310.715 121.335 309.888 120.502 308.838 119.893C307.822 119.294 306.658 119.003 305.348 119.021C304.071 119.047 302.787 119.43 301.494 120.168C300.181 120.918 299.178 121.842 298.484 122.94C297.824 124.047 297.484 125.197 297.462 126.389C297.474 127.591 297.782 128.721 298.387 129.78C299.004 130.86 299.821 131.7 300.837 132.3C301.887 132.908 303.05 133.199 304.327 133.172C305.625 133.133 306.942 132.733 308.276 131.971Z" fill="#DDBE90"/>
<path d="M308.268 152.73C307.722 150.932 307.634 149.174 308.005 147.455C308.382 145.76 309.19 144.265 310.429 142.971C311.698 141.693 313.324 140.753 315.308 140.15C317.269 139.555 319.124 139.45 320.873 139.837C322.653 140.239 324.163 141.055 325.403 142.285C326.667 143.507 327.575 145.029 328.128 146.849C328.681 148.67 328.773 150.44 328.402 152.158C328.056 153.87 327.263 155.373 326.024 156.667C324.793 157.984 323.185 158.945 321.201 159.547C319.217 160.15 317.331 160.238 315.545 159.812C313.789 159.403 312.275 158.575 311.004 157.329C309.733 156.083 308.821 154.55 308.268 152.73ZM311.069 151.879C311.417 153.022 312.011 154.015 312.853 154.855C313.695 155.696 314.745 156.256 316.003 156.537C317.268 156.841 318.671 156.759 320.212 156.291C321.752 155.823 322.967 155.123 323.857 154.19C324.746 153.256 325.298 152.222 325.514 151.085C325.753 149.942 325.699 148.798 325.352 147.655C324.997 146.487 324.402 145.495 323.568 144.678C322.763 143.877 321.736 143.348 320.485 143.09C319.234 142.833 317.838 142.938 316.297 143.406C314.734 143.882 313.5 144.562 312.596 145.449C311.7 146.358 311.129 147.373 310.882 148.493C310.66 149.606 310.722 150.735 311.069 151.879Z" fill="#DDBE90"/>
<path d="M331.214 169.705C332.442 170.089 333.46 170.756 334.266 171.707C335.076 172.682 335.613 173.94 335.876 175.478L332.486 176.058L332.338 175.193C331.708 171.513 329.398 170.015 325.406 170.698L314.658 172.536L314.097 169.253L333.863 165.874L334.424 169.156L331.214 169.705Z" fill="#DDBE90"/>
<path d="M334.417 186.259L322.612 186.852C321.637 186.901 320.953 187.143 320.56 187.578C320.191 188.012 320.032 188.74 320.084 189.764L320.207 192.212L317.392 192.354L317.242 189.357C317.149 187.505 317.506 186.095 318.312 185.126C319.118 184.158 320.496 183.624 322.445 183.526L334.25 182.934L334.119 180.339L336.86 180.201L336.991 182.796L342.034 182.543L342.201 185.869L337.158 186.122L337.42 191.348L334.679 191.486L334.417 186.259Z" fill="#DDBE90"/>
<mask id="path-33-inside-1_425_31180" fill="white">
<path fill-rule="evenodd" clip-rule="evenodd" d="M211.453 158.98C211.453 151.596 205.914 146.056 198.53 146.056C186.53 146.056 180.992 159.902 189.3 168.21C197.607 176.518 211.453 170.978 211.453 158.98ZM233.247 187.917L208.07 213.092V240.124C208.07 245.276 203.895 249.451 198.743 249.451C193.59 249.451 189.414 245.276 189.414 240.124V214.416L162.569 187.572C158.848 183.851 158.848 177.819 162.569 174.099C166.289 170.379 172.321 170.379 176.041 174.099L198.08 196.137L219.774 174.443C223.494 170.723 229.526 170.723 233.247 174.443C236.967 178.163 236.967 184.195 233.247 187.917Z"/>
</mask>
<path d="M189.3 168.21L190.917 166.593L190.917 166.593L189.3 168.21ZM208.07 213.092L206.453 211.474L205.783 212.144V213.092H208.07ZM233.247 187.917L234.864 189.534L234.864 189.534L233.247 187.917ZM189.414 214.415H191.701V213.468L191.031 212.798L189.414 214.415ZM162.569 187.571L160.951 189.189L160.951 189.189L162.569 187.571ZM162.569 174.099L160.951 172.482L160.951 172.482L162.569 174.099ZM176.041 174.099L174.424 175.716L174.424 175.716L176.041 174.099ZM198.08 196.137L196.463 197.754L198.08 199.372L199.697 197.754L198.08 196.137ZM219.774 174.443L218.157 172.826L218.157 172.826L219.774 174.443ZM233.247 174.443L234.864 172.826L234.864 172.826L233.247 174.443ZM198.53 148.343C204.651 148.343 209.166 152.858 209.166 158.98H213.74C213.74 150.333 207.178 143.769 198.53 143.769V148.343ZM190.917 166.593C184.031 159.706 188.595 148.343 198.53 148.343V143.769C184.466 143.769 177.954 160.098 187.683 169.827L190.917 166.593ZM209.166 158.98C209.166 168.914 197.802 173.478 190.917 166.593L187.683 169.827C197.411 179.557 213.74 173.042 213.74 158.98H209.166ZM209.688 214.709L234.864 189.534L231.629 186.3L206.453 211.474L209.688 214.709ZM210.357 240.124V213.092H205.783V240.124H210.357ZM198.743 251.738C205.158 251.738 210.357 246.539 210.357 240.124H205.783C205.783 244.012 202.632 247.164 198.743 247.164V251.738ZM187.127 240.124C187.127 246.539 192.327 251.738 198.743 251.738V247.164C194.853 247.164 191.701 244.012 191.701 240.124H187.127ZM187.127 214.415V240.124H191.701V214.415H187.127ZM160.951 189.189L187.797 216.033L191.031 212.798L164.186 185.954L160.951 189.189ZM160.951 172.482C156.338 177.095 156.338 184.575 160.951 189.189L164.186 185.954C161.359 183.127 161.359 178.543 164.186 175.716L160.951 172.482ZM177.658 172.482C173.045 167.869 165.565 167.869 160.951 172.482L164.186 175.716C167.013 172.889 171.597 172.889 174.424 175.716L177.658 172.482ZM199.697 194.52L177.658 172.482L174.424 175.716L196.463 197.754L199.697 194.52ZM218.157 172.826L196.463 194.52L199.697 197.754L221.391 176.06L218.157 172.826ZM234.864 172.826C230.25 168.212 222.77 168.212 218.157 172.826L221.391 176.06C224.219 173.233 228.802 173.233 231.629 176.06L234.864 172.826ZM234.864 189.534C239.477 184.919 239.477 177.44 234.864 172.826L231.629 176.06C234.456 178.887 234.457 183.471 231.629 186.3L234.864 189.534Z" fill="#1E1E1E" mask="url(#path-33-inside-1_425_31180)"/>
</g>
<path d="M164.682 211.515H163.24L157.442 202.296V211.515H156V199.92H157.442L163.24 209.123V199.92H164.682V211.515Z" fill="#1E1E1E"/>
<path d="M170.926 211.664C170.112 211.664 169.373 211.471 168.708 211.083C168.053 210.695 167.535 210.147 167.155 209.439C166.785 208.719 166.601 207.888 166.601 206.947C166.601 206.017 166.791 205.197 167.171 204.488C167.562 203.769 168.09 203.22 168.755 202.844C169.421 202.456 170.165 202.262 170.989 202.262C171.813 202.262 172.557 202.456 173.223 202.844C173.888 203.22 174.411 203.763 174.791 204.472C175.182 205.181 175.377 206.006 175.377 206.947C175.377 207.888 175.177 208.719 174.775 209.439C174.385 210.147 173.851 210.695 173.175 211.083C172.499 211.471 171.749 211.664 170.926 211.664ZM170.926 210.336C171.443 210.336 171.929 210.208 172.383 209.953C172.837 209.699 173.202 209.317 173.476 208.807C173.761 208.298 173.904 207.678 173.904 206.947C173.904 206.216 173.767 205.596 173.492 205.086C173.218 204.577 172.858 204.2 172.415 203.957C171.971 203.702 171.491 203.575 170.973 203.575C170.445 203.575 169.959 203.702 169.516 203.957C169.083 204.2 168.734 204.577 168.47 205.086C168.206 205.596 168.074 206.216 168.074 206.947C168.074 207.689 168.201 208.315 168.454 208.824C168.718 209.333 169.067 209.715 169.5 209.97C169.933 210.214 170.408 210.336 170.926 210.336Z" fill="#1E1E1E"/>
<path d="M182.241 200.934C181.967 200.934 181.734 200.834 181.544 200.635C181.354 200.435 181.259 200.192 181.259 199.904C181.259 199.616 181.354 199.372 181.544 199.173C181.734 198.973 181.967 198.874 182.241 198.874C182.505 198.874 182.727 198.973 182.907 199.173C183.097 199.372 183.192 199.616 183.192 199.904C183.192 200.192 183.097 200.435 182.907 200.635C182.727 200.834 182.505 200.934 182.241 200.934ZM182.938 202.412V211.515H181.497V202.412H182.938Z" fill="#1E1E1E"/>
<path d="M195.836 202.246C196.511 202.246 197.113 202.395 197.642 202.694C198.17 202.982 198.587 203.42 198.893 204.007C199.199 204.594 199.353 205.308 199.353 206.15V211.515H197.927V206.365C197.927 205.457 197.71 204.765 197.277 204.289C196.855 203.802 196.279 203.558 195.55 203.558C194.8 203.558 194.204 203.813 193.76 204.322C193.317 204.821 193.095 205.546 193.095 206.498V211.515H191.669V206.365C191.669 205.457 191.452 204.765 191.019 204.289C190.597 203.802 190.021 203.558 189.293 203.558C188.543 203.558 187.946 203.813 187.502 204.322C187.059 204.821 186.837 205.546 186.837 206.498V211.515H185.395V202.412H186.837V203.724C187.122 203.248 187.502 202.883 187.978 202.628C188.463 202.373 188.997 202.246 189.578 202.246C190.306 202.246 190.951 202.417 191.511 202.761C192.07 203.104 192.487 203.608 192.762 204.272C193.005 203.63 193.406 203.132 193.966 202.777C194.526 202.423 195.149 202.246 195.836 202.246Z" fill="#1E1E1E"/>
<path d="M201.179 206.93C201.179 206 201.358 205.186 201.717 204.488C202.077 203.78 202.568 203.231 203.191 202.844C203.824 202.456 204.527 202.262 205.298 202.262C206.058 202.262 206.718 202.434 207.278 202.777C207.838 203.121 208.255 203.553 208.53 204.073V202.412H209.987V211.515H208.53V209.821C208.245 210.352 207.817 210.795 207.246 211.15C206.687 211.493 206.032 211.664 205.282 211.664C204.511 211.664 203.814 211.465 203.191 211.066C202.568 210.668 202.077 210.109 201.717 209.389C201.358 208.669 201.179 207.849 201.179 206.93ZM208.53 206.947C208.53 206.26 208.398 205.662 208.134 205.153C207.87 204.643 207.511 204.256 207.056 203.99C206.613 203.713 206.122 203.575 205.583 203.575C205.044 203.575 204.553 203.708 204.11 203.973C203.666 204.239 203.312 204.627 203.048 205.136C202.784 205.646 202.652 206.244 202.652 206.93C202.652 207.628 202.784 208.237 203.048 208.757C203.312 209.267 203.666 209.66 204.11 209.937C204.553 210.203 205.044 210.336 205.583 210.336C206.122 210.336 206.613 210.203 207.056 209.937C207.511 209.66 207.87 209.267 208.134 208.757C208.398 208.237 208.53 207.633 208.53 206.947Z" fill="#1E1E1E"/>
<path d="M216.004 202.262C216.754 202.262 217.409 202.434 217.968 202.777C218.539 203.121 218.961 203.553 219.236 204.073V202.412H220.693V211.714C220.693 212.545 220.524 213.281 220.186 213.924C219.848 214.577 219.363 215.086 218.729 215.452C218.106 215.817 217.377 216 216.543 216C215.402 216 214.451 215.718 213.691 215.153C212.93 214.588 212.482 213.818 212.344 212.844H213.77C213.929 213.398 214.256 213.841 214.752 214.173C215.249 214.516 215.845 214.688 216.543 214.688C217.335 214.688 217.979 214.427 218.475 213.907C218.982 213.386 219.236 212.656 219.236 211.714V209.804C218.951 210.336 218.528 210.779 217.968 211.133C217.409 211.487 216.754 211.664 216.004 211.664C215.233 211.664 214.531 211.465 213.897 211.066C213.274 210.668 212.783 210.109 212.424 209.389C212.064 208.669 211.885 207.849 211.885 206.93C211.885 206 212.064 205.186 212.424 204.488C212.783 203.78 213.274 203.231 213.897 202.844C214.531 202.456 215.233 202.262 216.004 202.262ZM219.236 206.947C219.236 206.26 219.104 205.662 218.84 205.153C218.576 204.643 218.217 204.256 217.762 203.99C217.319 203.713 216.828 203.575 216.289 203.575C215.75 203.575 215.259 203.708 214.816 203.973C214.372 204.239 214.018 204.627 213.754 205.136C213.49 205.646 213.358 206.244 213.358 206.93C213.358 207.628 213.49 208.237 213.754 208.757C214.018 209.267 214.372 209.66 214.816 209.937C215.259 210.203 215.75 210.336 216.289 210.336C216.828 210.336 217.319 210.203 217.762 209.937C218.217 209.66 218.576 209.267 218.84 208.757C219.104 208.237 219.236 207.633 219.236 206.947Z" fill="#1E1E1E"/>
<path d="M231.051 206.615C231.051 206.903 231.035 207.207 231.003 207.528H224.064C224.117 208.425 224.408 209.128 224.936 209.638C225.474 210.136 226.124 210.385 226.884 210.385C227.507 210.385 228.025 210.236 228.437 209.937C228.859 209.627 229.155 209.217 229.324 208.708H230.877C230.644 209.583 230.18 210.297 229.482 210.85C228.785 211.393 227.919 211.664 226.884 211.664C226.06 211.664 225.321 211.471 224.666 211.083C224.022 210.695 223.515 210.147 223.145 209.439C222.776 208.719 222.591 207.888 222.591 206.947C222.591 206.006 222.77 205.181 223.13 204.472C223.489 203.763 223.99 203.22 224.635 202.844C225.289 202.456 226.039 202.262 226.884 202.262C227.708 202.262 228.437 202.451 229.071 202.827C229.704 203.204 230.19 203.724 230.528 204.389C230.877 205.042 231.051 205.784 231.051 206.615ZM229.562 206.299C229.562 205.723 229.44 205.23 229.197 204.821C228.954 204.4 228.622 204.084 228.199 203.874C227.787 203.652 227.328 203.542 226.821 203.542C226.092 203.542 225.469 203.785 224.951 204.272C224.445 204.76 224.154 205.435 224.08 206.299H229.562Z" fill="#1E1E1E"/>
<path d="M237.637 211.615C237.362 211.615 237.13 211.515 236.94 211.316C236.75 211.116 236.655 210.873 236.655 210.585C236.655 210.297 236.75 210.053 236.94 209.854C237.13 209.654 237.362 209.555 237.637 209.555C237.901 209.555 238.123 209.654 238.302 209.854C238.492 210.053 238.587 210.297 238.587 210.585C238.587 210.873 238.492 211.116 238.302 211.316C238.123 211.515 237.901 211.615 237.637 211.615ZM237.637 204.505C237.362 204.505 237.13 204.405 236.94 204.206C236.75 204.007 236.655 203.763 236.655 203.475C236.655 203.187 236.75 202.944 236.94 202.744C237.13 202.545 237.362 202.445 237.637 202.445C237.901 202.445 238.123 202.545 238.302 202.744C238.492 202.944 238.587 203.187 238.587 203.475C238.587 203.763 238.492 204.007 238.302 204.206C238.123 204.405 237.901 204.505 237.637 204.505Z" fill="#1E1E1E"/>
<path d="M244.257 214.605C243.243 213.564 242.451 212.24 241.881 210.635C241.321 209.029 241.041 207.296 241.041 205.435C241.041 203.53 241.337 201.753 241.928 200.103C242.53 198.442 243.386 197.074 244.495 196H246V196.15C244.817 197.312 243.925 198.713 243.323 200.352C242.731 201.98 242.435 203.674 242.435 205.435C242.435 207.152 242.715 208.791 243.275 210.352C243.845 211.914 244.675 213.281 245.762 214.455V214.605H244.257Z" fill="#1E1E1E"/>
</svg>
