<svg width="161" height="22" viewBox="0 0 161 22" fill="none" xmlns="http://www.w3.org/2000/svg">
<rect x="119.137" y="3.5" width="40.9097" height="17.4" rx="4.5" fill="#121248"/>
<path d="M130.561 12.068C131.033 12.156 131.433 12.396 131.761 12.788C132.089 13.18 132.253 13.636 132.253 14.156C132.253 14.58 132.145 14.964 131.929 15.308C131.721 15.644 131.413 15.912 131.005 16.112C130.597 16.304 130.109 16.4 129.541 16.4H126.637V8.012H129.457C130.305 8.012 130.949 8.208 131.389 8.6C131.837 8.992 132.061 9.5 132.061 10.124C132.061 10.644 131.921 11.068 131.641 11.396C131.361 11.716 131.001 11.94 130.561 12.068ZM127.477 11.72H129.433C130.001 11.72 130.437 11.588 130.741 11.324C131.053 11.052 131.209 10.68 131.209 10.208C131.209 9.744 131.053 9.38 130.741 9.116C130.437 8.852 129.989 8.72 129.397 8.72H127.477V11.72ZM129.481 15.692C130.089 15.692 130.561 15.548 130.897 15.26C131.241 14.972 131.413 14.576 131.413 14.072C131.413 13.568 131.233 13.168 130.873 12.872C130.521 12.568 130.045 12.416 129.445 12.416H127.477V15.692H129.481Z" fill="white"/>
<path d="M134.638 8.696V11.828H137.818V12.524H134.638V15.704H138.178V16.4H133.798V8H138.178V8.696H134.638Z" fill="white"/>
<path d="M144.741 8.012V8.708H142.413V16.4H141.573V8.708H139.233V8.012H144.741Z" fill="white"/>
<path d="M150.927 14.408H147.111L146.379 16.4H145.491L148.551 8.12H149.499L152.547 16.4H151.659L150.927 14.408ZM150.675 13.712L149.019 9.176L147.363 13.712H150.675Z" fill="white"/>
<rect x="119.137" y="3.5" width="40.9097" height="17.4" rx="4.5" stroke="#17144B"/>
<path fill-rule="evenodd" clip-rule="evenodd" d="M7.78917 0C9.27337 0 10.3866 1.1134 10.3866 2.5977C10.3866 5.0094 7.60356 6.1228 5.93386 4.4529C4.26406 2.783 5.37717 0 7.78917 0Z" fill="#FFB02A"/>
<path fill-rule="evenodd" clip-rule="evenodd" d="M5.95691 12.9076C5.95691 11.8721 6.79621 11.0327 7.83201 11.0327C8.86751 11.0327 9.70691 11.8721 9.70691 12.9076V18.9076C9.70691 19.9431 8.86751 20.7825 7.83201 20.7825C6.79621 20.7825 5.95691 19.9431 5.95691 18.9076V12.9076Z" fill="#121248"/>
<path fill-rule="evenodd" clip-rule="evenodd" d="M12.0592 5.70587C12.807 4.95807 14.0194 4.95807 14.7672 5.70587C15.515 6.45357 15.515 7.66597 14.7672 8.41407L9.01262 14.1684C8.26482 14.9162 7.05242 14.9162 6.30462 14.1684C5.55682 13.4206 5.55682 12.2082 6.30462 11.4605L12.0592 5.70587Z" fill="#121248"/>
<path fill-rule="evenodd" clip-rule="evenodd" d="M3.26875 5.63672C2.52095 4.88892 1.30865 4.88892 0.56085 5.63672C-0.18695 6.38452 -0.18695 7.59682 0.56085 8.34462L6.31545 14.099C7.06325 14.8467 8.27555 14.8467 9.02335 14.099C9.77115 13.3512 9.77115 12.1388 9.02335 11.391L3.26875 5.63672Z" fill="#121248"/>
<path fill-rule="evenodd" clip-rule="evenodd" d="M16.0962 20.0279C15.7602 20.0279 15.5023 19.8839 15.3223 19.5959C15.1423 19.3079 15.1242 19.0018 15.2682 18.6778L20.3263 6.59989C20.5063 6.17979 20.8002 5.96979 21.2082 5.96979C21.6402 5.96979 21.9344 6.17979 22.0903 6.59989L27.1663 18.7138C27.2984 19.0499 27.2743 19.3558 27.0943 19.6319C26.9262 19.8958 26.6682 20.0279 26.3202 20.0279C26.1402 20.0279 25.9664 19.98 25.7983 19.8839C25.6424 19.7759 25.5282 19.6319 25.4562 19.4519L24.4482 16.9319H17.9863L16.9602 19.4519C16.8762 19.6438 16.7504 19.7878 16.5823 19.8839C16.4264 19.98 16.2642 20.0279 16.0962 20.0279V20.0279ZM18.6162 15.3839H23.8183L21.2442 8.97589L18.6162 15.3839Z" fill="#121248"/>
<path fill-rule="evenodd" clip-rule="evenodd" d="M35.5743 20.2079C34.8064 20.2079 34.0746 20.088 33.3784 19.8479C32.6825 19.6078 32.0765 19.2719 31.5606 18.8399C31.0447 18.4079 30.6665 17.9099 30.4264 17.3458C30.3065 17.0938 30.3065 16.8599 30.4264 16.6439C30.5585 16.4279 30.7745 16.2899 31.0744 16.2298C31.2904 16.1819 31.5005 16.2179 31.7046 16.3378C31.9206 16.4458 32.0824 16.6139 32.1904 16.8418C32.3344 17.1419 32.5686 17.4178 32.8926 17.6698C33.2285 17.9218 33.6304 18.1259 34.0984 18.2818C34.5664 18.4379 35.0584 18.5159 35.5743 18.5159C36.1503 18.5159 36.6785 18.4258 37.1584 18.2458C37.6505 18.0658 38.0465 17.8078 38.3464 17.4719C38.6466 17.1238 38.7966 16.6978 38.7966 16.1938C38.7966 15.5579 38.5446 14.9879 38.0406 14.4839C37.5485 13.9799 36.7326 13.6678 35.5925 13.5479C34.1046 13.4039 32.9345 12.9659 32.0824 12.2338C31.2306 11.5019 30.8046 10.5959 30.8046 9.51592C30.8046 8.72392 31.0265 8.05182 31.4704 7.49992C31.9146 6.94802 32.5144 6.52792 33.2704 6.23992C34.0386 5.95192 34.8904 5.80792 35.8264 5.80792C36.9186 5.80792 37.8126 6.02992 38.5085 6.47382C39.2044 6.91792 39.7805 7.50592 40.2366 8.23782C40.4047 8.50192 40.4704 8.75392 40.4344 8.99382C40.4106 9.22192 40.2966 9.40192 40.0925 9.53382C39.8646 9.67782 39.6186 9.70782 39.3544 9.62392C39.0905 9.54002 38.8927 9.38382 38.7606 9.15592C38.4607 8.64002 38.0706 8.23782 37.5904 7.94982C37.1224 7.66182 36.5166 7.51182 35.7725 7.49992C34.8844 7.48802 34.1407 7.65582 33.5406 8.00392C32.9405 8.33982 32.6405 8.86192 32.6405 9.56982C32.6405 9.92982 32.7304 10.2779 32.9104 10.6138C33.1026 10.9378 33.4445 11.2198 33.9366 11.4599C34.4406 11.7 35.1606 11.8678 36.0966 11.9639C37.5247 12.1079 38.6344 12.5459 39.4264 13.2778C40.2306 13.9978 40.6326 14.9519 40.6326 16.1399C40.6326 16.8239 40.4886 17.4178 40.2006 17.9218C39.9245 18.4258 39.5465 18.8518 39.0663 19.1999C38.5983 19.5358 38.0584 19.7878 37.4464 19.9559C36.8466 20.124 36.2223 20.2079 35.5743 20.2079V20.2079Z" fill="#121248"/>
<path fill-rule="evenodd" clip-rule="evenodd" d="M49.7672 20.2079C48.999 20.2079 48.2671 20.088 47.5712 19.8479C46.875 19.6078 46.269 19.2719 45.7531 18.8399C45.2372 18.4079 44.859 17.9099 44.6192 17.3458C44.499 17.0938 44.499 16.8599 44.6192 16.6439C44.751 16.4279 44.967 16.2899 45.2672 16.2298C45.4832 16.1819 45.693 16.2179 45.8971 16.3378C46.1131 16.4458 46.2752 16.6139 46.3832 16.8418C46.5272 17.1419 46.7611 17.4178 47.0851 17.6698C47.421 17.9218 47.8232 18.1259 48.2912 18.2818C48.7592 18.4379 49.251 18.5159 49.7672 18.5159C50.3432 18.5159 50.871 18.4258 51.3512 18.2458C51.843 18.0658 52.239 17.8078 52.5392 17.4719C52.8391 17.1238 52.9891 16.6978 52.9891 16.1938C52.9891 15.5579 52.7371 14.9879 52.2331 14.4839C51.741 13.9799 50.9252 13.6678 49.7851 13.5479C48.2972 13.4039 47.127 12.9659 46.2752 12.2338C45.4231 11.5019 44.9971 10.5959 44.9971 9.51592C44.9971 8.72392 45.219 8.05182 45.6632 7.49992C46.1071 6.94802 46.7072 6.52792 47.4632 6.23992C48.2311 5.95192 49.0832 5.80792 50.0192 5.80792C51.1111 5.80792 52.0052 6.02992 52.7011 6.47382C53.397 6.91792 53.973 7.50592 54.4291 8.23782C54.5972 8.50192 54.6632 8.75392 54.6272 8.99382C54.6031 9.22192 54.4892 9.40192 54.2851 9.53382C54.0572 9.67782 53.8111 9.70782 53.5472 9.62392C53.283 9.54002 53.0852 9.38382 52.9531 9.15592C52.6532 8.64002 52.2631 8.23782 51.7832 7.94982C51.3152 7.66182 50.7092 7.51182 49.9651 7.49992C49.077 7.48802 48.3332 7.65582 47.7331 8.00392C47.133 8.33982 46.8331 8.86192 46.8331 9.56982C46.8331 9.92982 46.9232 10.2779 47.1032 10.6138C47.2951 10.9378 47.637 11.2198 48.1291 11.4599C48.6331 11.7 49.3531 11.8678 50.2891 11.9639C51.7172 12.1079 52.8272 12.5459 53.6192 13.2778C54.4231 13.9978 54.8251 14.9519 54.8251 16.1399C54.8251 16.8239 54.6811 17.4178 54.3931 17.9218C54.117 18.4258 53.7391 18.8518 53.2592 19.1999C52.7912 19.5358 52.2512 19.7878 51.6392 19.9559C51.0391 20.124 50.4152 20.2079 49.7672 20.2079V20.2079Z" fill="#121248"/>
<path fill-rule="evenodd" clip-rule="evenodd" d="M60.4316 20.0279C60.1677 20.0279 59.9458 19.9378 59.7658 19.7578C59.5858 19.5778 59.4956 19.3558 59.4956 19.0919V6.90579C59.4956 6.62989 59.5858 6.40799 59.7658 6.23989C59.9458 6.05989 60.1677 5.96979 60.4316 5.96979H64.0316C64.9316 5.96979 65.7296 6.16789 66.4258 6.56389C67.1217 6.95989 67.6617 7.51179 68.0458 8.21989C68.4418 8.91579 68.6396 9.71999 68.6396 10.6319C68.6396 11.5078 68.4418 12.2879 68.0458 12.9719C67.6617 13.6559 67.1217 14.1899 66.4258 14.5738C65.7296 14.9579 64.9316 15.1498 64.0316 15.1498H61.3676V19.0919C61.3676 19.3558 61.2778 19.5778 61.0978 19.7578C60.9297 19.9378 60.7077 20.0279 60.4316 20.0279V20.0279ZM61.3676 13.4218H64.0316C64.8477 13.4218 65.5195 13.1638 66.0476 12.6479C66.5757 12.1198 66.8396 11.448 66.8396 10.6319C66.8396 10.0559 66.7197 9.55189 66.4796 9.11989C66.2395 8.67599 65.9096 8.32789 65.4898 8.07589C65.0697 7.82389 64.5835 7.69779 64.0316 7.69779H61.3676V13.4218Z" fill="#121248"/>
<path fill-rule="evenodd" clip-rule="evenodd" d="M79.0085 20.2079C77.9526 20.2079 76.9865 20.0339 76.1103 19.6858C75.2344 19.3258 74.4784 18.828 73.8423 18.1919C73.2184 17.5439 72.7326 16.7819 72.3845 15.9058C72.0364 15.0179 71.8623 14.0459 71.8623 12.9898C71.8623 11.9339 72.0364 10.9678 72.3845 10.0919C72.7326 9.21599 73.2184 8.45999 73.8423 7.82389C74.4784 7.17589 75.2344 6.67789 76.1103 6.32979C76.9865 5.96979 77.9526 5.78979 79.0085 5.78979C80.0644 5.78979 81.0245 5.96979 81.8885 6.32979C82.7644 6.67789 83.5204 7.17589 84.1565 7.82389C84.7926 8.45999 85.2844 9.21599 85.6325 10.0919C85.9806 10.9678 86.1543 11.9339 86.1543 12.9898C86.1543 14.0459 85.9806 15.0179 85.6325 15.9058C85.2844 16.7819 84.7926 17.5439 84.1565 18.1919C83.5204 18.828 82.7644 19.3258 81.8885 19.6858C81.0245 20.0339 80.0644 20.2079 79.0085 20.2079V20.2079ZM79.0085 18.5159C80.0525 18.5159 80.9766 18.2758 81.7805 17.7959C82.5844 17.3038 83.2145 16.6439 83.6703 15.8159C84.1264 14.976 84.3543 14.0338 84.3543 12.9898C84.3543 11.9458 84.1264 11.0098 83.6703 10.1818C83.2145 9.34189 82.5844 8.6819 81.7805 8.2018C80.9766 7.7219 80.0525 7.48179 79.0085 7.48179C77.9645 7.48179 77.0404 7.7219 76.2365 8.2018C75.4326 8.6819 74.8024 9.34189 74.3463 10.1818C73.8905 11.0098 73.6623 11.9458 73.6623 12.9898C73.6623 14.0338 73.8905 14.976 74.3463 15.8159C74.8024 16.6439 75.4326 17.3038 76.2365 17.7959C77.0404 18.2758 77.9645 18.5159 79.0085 18.5159Z" fill="#121248"/>
<path fill-rule="evenodd" clip-rule="evenodd" d="M91.8231 20.0279C91.559 20.0279 91.337 19.9378 91.157 19.7578C90.977 19.5778 90.8871 19.3558 90.8871 19.0919V6.90579C90.8871 6.62989 90.977 6.40799 91.157 6.23989C91.337 6.05989 91.559 5.96979 91.8231 5.96979H95.0631C95.9631 5.96979 96.7611 6.16189 97.457 6.54579C98.1529 6.91789 98.6929 7.43389 99.077 8.09379C99.473 8.75389 99.6711 9.52189 99.6711 10.3978C99.6711 11.2618 99.4551 12.024 99.0231 12.6839C98.5911 13.3319 98.003 13.824 97.2591 14.1599L100.013 18.5879C100.229 18.936 100.259 19.2659 100.103 19.5778C99.947 19.8779 99.6771 20.0279 99.293 20.0279C98.9449 20.0279 98.6751 19.8779 98.4831 19.5778L95.3871 14.6098C95.2791 14.6098 95.1711 14.6098 95.0631 14.6098H92.7591V19.0919C92.7591 19.3558 92.669 19.5778 92.489 19.7578C92.3209 19.9378 92.099 20.0279 91.8231 20.0279V20.0279ZM92.7591 12.8818H95.0631C95.879 12.8818 96.5511 12.6539 97.0791 12.1978C97.607 11.7298 97.8711 11.1299 97.8711 10.3978C97.8711 9.60579 97.607 8.95779 97.0791 8.45379C96.5511 7.94979 95.879 7.69779 95.0631 7.69779H92.7591V12.8818Z" fill="#121248"/>
<path fill-rule="evenodd" clip-rule="evenodd" d="M108.218 20.0279C107.954 20.0279 107.732 19.9378 107.552 19.7578C107.372 19.5778 107.282 19.3558 107.282 19.0919V7.69779H103.394C103.142 7.69779 102.932 7.61979 102.764 7.46389C102.608 7.29579 102.53 7.08579 102.53 6.83379C102.53 6.58179 102.608 6.37789 102.764 6.22179C102.932 6.05389 103.142 5.96979 103.394 5.96979H113.024C113.276 5.96979 113.48 6.05389 113.636 6.22179C113.804 6.37789 113.888 6.58179 113.888 6.83379C113.888 7.08579 113.804 7.29579 113.636 7.46389C113.48 7.61979 113.276 7.69779 113.024 7.69779H109.154V19.0919C109.154 19.3558 109.064 19.5778 108.884 19.7578C108.704 19.9378 108.482 20.0279 108.218 20.0279V20.0279Z" fill="#121248"/>
<path fill-rule="evenodd" clip-rule="evenodd" d="M19.6369 6.30447C19.7667 6.00117 19.9612 5.72027 20.2458 5.51707C20.5361 5.30957 20.8691 5.21997 21.2082 5.21997C21.5494 5.21997 21.8913 5.30447 22.1887 5.51707C22.4792 5.72457 22.6694 6.01227 22.7873 6.32267L27.8614 18.4317L27.8644 18.4397C28.075 18.9752 28.0495 19.5382 27.7249 20.0382C27.4018 20.5433 26.8896 20.778 26.3204 20.778C26.0003 20.778 25.699 20.691 25.4263 20.5351L25.3982 20.519L25.3716 20.5005C25.0918 20.3069 24.8855 20.0439 24.7602 19.7306L23.9405 17.6819H18.4909L17.6512 19.7436L17.6472 19.7526C17.5057 20.0757 17.2789 20.3461 16.9649 20.529C16.7044 20.6872 16.411 20.7781 16.0958 20.7781C15.4979 20.7781 15.001 20.4978 14.6858 19.9935C14.3686 19.4858 14.3428 18.9189 14.5789 18.3817L19.6369 6.30447ZM15.2682 18.6778C15.1242 19.0018 15.1423 19.3079 15.3223 19.5959C15.5023 19.8839 15.7602 20.0279 16.0962 20.0279C16.2642 20.0279 16.4264 19.98 16.5823 19.8839C16.7504 19.7878 16.8762 19.6438 16.9602 19.4519L17.9863 16.9319H24.4482L25.4562 19.4519C25.5282 19.6319 25.6424 19.7759 25.7983 19.8839C25.9664 19.98 26.1402 20.0279 26.3202 20.0279C26.6682 20.0279 26.9262 19.8958 27.0943 19.6319C27.2743 19.3558 27.2984 19.0499 27.1663 18.7138L22.0903 6.59987C21.9344 6.17977 21.6402 5.96977 21.2082 5.96977C20.8002 5.96977 20.5063 6.17977 20.3263 6.59987L15.2682 18.6778ZM40.0926 9.53377C39.8647 9.67777 39.6186 9.70777 39.3544 9.62387C39.0905 9.53997 38.8927 9.38377 38.7606 9.15587C38.4607 8.63997 38.0706 8.23777 37.5904 7.94977C37.1224 7.66177 36.5167 7.51177 35.7726 7.49987C34.8845 7.48797 34.1407 7.65577 33.5406 8.00387C32.9405 8.33977 32.6406 8.86187 32.6406 9.56977C32.6406 9.92977 32.7304 10.2779 32.9104 10.6138C33.1026 10.9378 33.4445 11.2198 33.9366 11.4599C34.4406 11.7 35.1606 11.8678 36.0966 11.9639C37.5247 12.1079 38.6344 12.5459 39.4264 13.2778C40.2306 13.9978 40.6326 14.9519 40.6326 16.1399C40.6326 16.8239 40.4886 17.4178 40.2006 17.9218C39.9245 18.4258 39.5466 18.8518 39.0664 19.1999C38.5984 19.5358 38.0584 19.7878 37.4464 19.9559C36.8466 20.124 36.2224 20.2079 35.5744 20.2079C34.8065 20.2079 34.0746 20.088 33.3784 19.8479C32.6825 19.6078 32.0765 19.2719 31.5606 18.8399C31.0447 18.4079 30.6665 17.9099 30.4264 17.3458C30.3065 17.0938 30.3065 16.8599 30.4264 16.6439C30.5585 16.4279 30.7745 16.2899 31.0744 16.2298C31.2904 16.1819 31.5005 16.2179 31.7046 16.3378C31.9206 16.4458 32.0824 16.6139 32.1904 16.8418C32.3344 17.1419 32.5686 17.4178 32.8926 17.6698C33.2285 17.9218 33.6304 18.1259 34.0984 18.2818C34.5664 18.4379 35.0585 18.5159 35.5744 18.5159C36.1504 18.5159 36.6785 18.4258 37.1584 18.2458C37.6505 18.0658 38.0465 17.8078 38.3464 17.4719C38.6466 17.1238 38.7966 16.6978 38.7966 16.1938C38.7966 15.5579 38.5446 14.9879 38.0406 14.4839C37.5485 13.9799 36.7327 13.6678 35.5926 13.5479C34.1047 13.4039 32.9345 12.9659 32.0824 12.2338C31.2306 11.5019 30.8046 10.5959 30.8046 9.51587C30.8046 8.72387 31.0265 8.05177 31.4704 7.49987C31.9146 6.94797 32.5144 6.52787 33.2704 6.23987C34.0386 5.95187 34.8904 5.80787 35.8264 5.80787C36.9186 5.80787 37.8127 6.02987 38.5086 6.47377C39.2045 6.91787 39.7805 7.50587 40.2366 8.23777C40.4047 8.50187 40.4704 8.75387 40.4344 8.99377C40.4106 9.22187 40.2967 9.40187 40.0926 9.53377V9.53377ZM41.1785 9.08897C41.1252 9.54957 40.8766 9.91977 40.4999 10.1636L40.4929 10.1676C40.072 10.4335 39.5952 10.4873 39.1269 10.3382C38.6954 10.201 38.3423 9.92997 38.1118 9.53197C37.8711 9.11817 37.5687 8.81117 37.2044 8.59257L37.1974 8.58857C36.878 8.39187 36.4162 8.26027 35.7614 8.24957C34.972 8.23907 34.3707 8.38927 33.9166 8.65237L33.9116 8.65537L33.9066 8.65737C33.7076 8.76877 33.5885 8.89267 33.5154 9.02027C33.4414 9.14897 33.3901 9.32297 33.3901 9.56907C33.3901 9.79297 33.4434 10.0152 33.5627 10.2431C33.6566 10.3939 33.8581 10.5861 34.2615 10.7834C34.6529 10.9691 35.2737 11.1247 36.172 11.2171C37.7059 11.3719 38.9857 11.8509 39.9308 12.7223C40.9079 13.5994 41.3821 14.7638 41.3821 16.1392C41.3821 16.9278 41.2157 17.6526 40.8546 18.2873C40.5238 18.8891 40.0714 19.3965 39.5064 19.8064L39.5034 19.8084C38.9569 20.201 38.335 20.4887 37.6467 20.6778C36.9789 20.8646 36.2872 20.9572 35.574 20.9572C34.7265 20.9572 33.9118 20.8246 33.1337 20.5561C32.3592 20.2891 31.6713 19.9101 31.0788 19.4141C30.4847 18.9169 30.0326 18.3298 29.7417 17.6518C29.5399 17.2178 29.5192 16.7314 29.7704 16.2789L29.7784 16.2653L29.7864 16.252C30.0484 15.8231 30.4639 15.5881 30.9197 15.4952C31.3234 15.4076 31.7151 15.4799 32.0624 15.6777C32.4232 15.8645 32.6942 16.1542 32.8671 16.5176C32.9499 16.69 33.0979 16.8779 33.3476 17.0729C33.6081 17.2674 33.9335 17.4358 34.3355 17.5696C34.7235 17.6991 35.1351 17.7652 35.5742 17.7652C36.0714 17.7652 36.5091 17.6878 36.8949 17.5429L36.9009 17.5409C37.2932 17.3975 37.5778 17.2048 37.7827 16.9769C37.9511 16.7796 38.0466 16.5335 38.0466 16.1934C38.0466 15.7812 37.8921 15.3957 37.5103 15.0139L37.5043 15.0069C37.1908 14.6861 36.583 14.4057 35.5172 14.2932C33.9272 14.139 32.5958 13.6625 31.594 12.8019C30.5838 11.9339 30.0548 10.8236 30.0548 9.51507C30.0548 8.57337 30.3227 7.72977 30.8865 7.02877C31.4251 6.35927 32.1414 5.86657 33.004 5.53807L33.007 5.53707C33.8704 5.21337 34.8129 5.05747 35.8263 5.05747C37.0163 5.05747 38.0623 5.29917 38.9118 5.84117C39.7055 6.34747 40.3589 7.01677 40.8711 7.83797C41.1036 8.20417 41.2425 8.63047 41.1784 9.08857L41.1785 9.08897ZM54.2851 9.53377C54.0572 9.67777 53.8111 9.70777 53.5472 9.62387C53.283 9.53997 53.0852 9.38377 52.9531 9.15587C52.6532 8.63997 52.2631 8.23777 51.7832 7.94977C51.3152 7.66177 50.7092 7.51177 49.9651 7.49987C49.077 7.48797 48.3332 7.65577 47.7331 8.00387C47.133 8.33977 46.8331 8.86187 46.8331 9.56977C46.8331 9.92977 46.9232 10.2779 47.1032 10.6138C47.2951 10.9378 47.637 11.2198 48.1291 11.4599C48.6331 11.7 49.3531 11.8678 50.2891 11.9639C51.7172 12.1079 52.8272 12.5459 53.6192 13.2778C54.4231 13.9978 54.8251 14.9519 54.8251 16.1399C54.8251 16.8239 54.6811 17.4178 54.3931 17.9218C54.117 18.4258 53.7391 18.8518 53.2592 19.1999C52.7912 19.5358 52.2512 19.7878 51.6392 19.9559C51.0391 20.124 50.4152 20.2079 49.7672 20.2079C48.999 20.2079 48.2671 20.088 47.5712 19.8479C46.875 19.6078 46.269 19.2719 45.7531 18.8399C45.2372 18.4079 44.859 17.9099 44.6192 17.3458C44.499 17.0938 44.499 16.8599 44.6192 16.6439C44.751 16.4279 44.967 16.2899 45.2672 16.2298C45.4832 16.1819 45.693 16.2179 45.8971 16.3378C46.1131 16.4458 46.2752 16.6139 46.3832 16.8418C46.5272 17.1419 46.7611 17.4178 47.0851 17.6698C47.421 17.9218 47.8232 18.1259 48.2912 18.2818C48.7592 18.4379 49.251 18.5159 49.7672 18.5159C50.3432 18.5159 50.871 18.4258 51.3512 18.2458C51.843 18.0658 52.239 17.8078 52.5392 17.4719C52.8391 17.1238 52.9891 16.6978 52.9891 16.1938C52.9891 15.5579 52.7371 14.9879 52.2331 14.4839C51.741 13.9799 50.9252 13.6678 49.7851 13.5479C48.2972 13.4039 47.127 12.9659 46.2752 12.2338C45.4231 11.5019 44.9971 10.5959 44.9971 9.51587C44.9971 8.72387 45.219 8.05177 45.6632 7.49987C46.1071 6.94797 46.7072 6.52787 47.4632 6.23987C48.2311 5.95187 49.0832 5.80787 50.0192 5.80787C51.1111 5.80787 52.0052 6.02987 52.7011 6.47377C53.397 6.91787 53.973 7.50587 54.4291 8.23777C54.5972 8.50187 54.6632 8.75387 54.6272 8.99377C54.6031 9.22187 54.4892 9.40187 54.2851 9.53377V9.53377ZM55.3713 9.08897C55.3177 9.54957 55.0691 9.91977 54.6927 10.1636L54.6857 10.1676C54.2648 10.4335 53.788 10.4873 53.3197 10.3382C52.888 10.201 52.5351 9.92967 52.3043 9.53147C52.0637 9.11787 51.7612 8.81087 51.3972 8.59257L51.3902 8.58857C51.0708 8.39187 50.609 8.26027 49.9542 8.24957C49.1648 8.23907 48.5635 8.38927 48.1097 8.65237L48.1047 8.65537L48.0997 8.65737C47.9007 8.76877 47.7819 8.89267 47.7085 9.02027C47.6345 9.14897 47.5832 9.32297 47.5832 9.56907C47.5832 9.79297 47.6368 10.0152 47.7561 10.2431C47.85 10.3939 48.0512 10.5861 48.4549 10.7834C48.8463 10.9691 49.4668 11.1247 50.3651 11.2171C51.8992 11.3719 53.1788 11.8509 54.1239 12.7223C55.101 13.5994 55.5752 14.7638 55.5752 16.1392C55.5752 16.9278 55.4088 17.6526 55.048 18.2873C54.7172 18.8894 54.2645 19.3965 53.6995 19.8064L53.6965 19.8084C53.1497 20.201 52.5275 20.4887 51.8392 20.678C51.1714 20.8646 50.4797 20.9572 49.7671 20.9572C48.9195 20.9572 48.1046 20.8246 47.3265 20.5561C46.5521 20.2891 45.8641 19.9101 45.2716 19.4141C44.6778 18.9169 44.2257 18.3298 43.9345 17.6521C43.7327 17.2178 43.712 16.7314 43.9635 16.2789L43.9705 16.2653L43.9785 16.252C44.2405 15.8231 44.656 15.5881 45.1121 15.4952C45.5155 15.4076 45.9072 15.4799 46.2545 15.6777C46.6156 15.8645 46.8863 16.1542 47.0592 16.5176C47.059 16.5173 47.059 16.5171 47.0587 16.5166L55.3713 9.08897ZM55.3707 9.08837C55.4345 8.63027 55.2956 8.20397 55.0634 7.83777C54.5512 7.01657 53.8975 6.34727 53.1038 5.84097C52.2543 5.29897 51.2083 5.05727 50.0186 5.05727C49.0052 5.05727 48.0624 5.21337 47.1993 5.53687L47.1953 5.53787C46.3327 5.86637 45.6164 6.35907 45.0778 7.02857C44.514 7.72957 44.2461 8.57317 44.2461 9.51487C44.2461 10.8234 44.7753 11.9337 45.7856 12.8017C46.7871 13.6623 48.1185 14.1388 49.7088 14.293C50.7746 14.4055 51.3821 14.6859 51.6956 15.0067L51.7016 15.0137C52.0834 15.3955 52.2379 15.781 52.2379 16.1932C52.2379 16.5333 52.1424 16.7794 51.974 16.9767C51.7691 17.2046 51.4845 17.3973 51.0924 17.541L51.0864 17.543C50.7003 17.6879 50.2626 17.7653 49.7657 17.7653C49.3263 17.7653 48.9147 17.6992 48.5267 17.5697C48.125 17.4359 47.7993 17.2675 47.5388 17.073C47.2891 16.878 47.1411 16.6901 47.0583 16.5177L55.3707 9.08837ZM65.8192 9.47587C65.6412 9.14647 65.4042 8.89897 65.1032 8.71847C64.814 8.54467 64.4648 8.44717 64.0311 8.44717H62.1172V12.6714H64.0311C64.6717 12.6714 65.1477 12.4761 65.5196 12.1141C65.8915 11.7408 66.0891 11.2671 66.0891 10.6313C66.0891 10.1613 65.9921 9.78687 65.8235 9.48357L65.8192 9.47587ZM66.0471 12.6473C65.519 13.1632 64.8472 13.4212 64.0311 13.4212H61.3671V7.69717H64.0311C64.583 7.69717 65.0692 7.82327 65.4893 8.07527C65.9091 8.32727 66.239 8.67537 66.4791 9.11927C66.7192 9.55127 66.8391 10.0553 66.8391 10.6313C66.8391 11.4474 66.5752 12.1192 66.0471 12.6473ZM75.8249 20.3788C74.862 19.9834 74.0213 19.4315 73.3117 18.7217L73.3067 18.7167L73.3017 18.7117C72.6067 17.9902 72.0689 17.1444 71.6871 16.1823L71.6861 16.1793C71.3006 15.1951 71.1124 14.1293 71.1124 12.9895C71.1124 11.8502 71.3006 10.7886 71.6875 9.81467C72.0699 8.85137 72.6093 8.00957 73.3067 7.29827C74.0179 6.57377 74.8615 6.01927 75.8289 5.63407C76.8046 5.23417 77.8676 5.03967 79.0083 5.03967C80.1484 5.03967 81.2057 5.23387 82.1709 5.63497C83.1369 6.01927 83.9794 6.57297 84.6886 7.29547C85.3998 8.00667 85.9458 8.84947 86.329 9.81467C86.7159 10.7886 86.9042 11.8502 86.9042 12.9895C86.9042 14.1293 86.7159 15.1951 86.3304 16.1793L86.3294 16.1823C85.9462 17.1475 85.4002 17.9948 84.6921 18.7168L84.6871 18.7218C83.9776 19.4316 83.1369 19.9835 82.1736 20.3789L82.1696 20.3809C81.2053 20.7692 80.1485 20.9571 79.0093 20.9571C77.87 20.9571 76.8087 20.7689 75.8345 20.382L75.8249 20.3788ZM84.156 7.82327C83.5199 7.17527 82.7639 6.67727 81.888 6.32917C81.024 5.96917 80.0639 5.78917 79.008 5.78917C77.9521 5.78917 76.986 5.96917 76.1098 6.32917C75.2339 6.67727 74.4779 7.17527 73.8418 7.82327C73.2179 8.45937 72.7321 9.21537 72.384 10.0913C72.0359 10.9672 71.8618 11.9333 71.8618 12.9892C71.8618 14.0453 72.0359 15.0173 72.384 15.9052C72.7321 16.7813 73.2179 17.5433 73.8418 18.1913C74.4779 18.8274 75.2339 19.3252 76.1098 19.6852C76.986 20.0333 77.9521 20.2073 79.008 20.2073C80.0639 20.2073 81.024 20.0333 81.888 19.6852C82.7639 19.3252 83.5199 18.8274 84.156 18.1913C84.7921 17.5433 85.2839 16.7813 85.632 15.9052C85.9801 15.0173 86.1538 14.0453 86.1538 12.9892C86.1538 11.9333 85.9801 10.9672 85.632 10.0913C85.2839 9.21537 84.7921 8.45937 84.156 7.82327V7.82327ZM83.013 10.5431L83.011 10.5391C82.6178 9.81477 82.0818 9.25467 81.3955 8.84507C80.7211 8.44227 79.9328 8.23107 79.0082 8.23107C78.0835 8.23107 77.2952 8.44227 76.6208 8.84507C75.9346 9.25467 75.3985 9.81477 75.0054 10.5391L75.0034 10.5431C74.615 11.249 74.4124 12.0583 74.4124 12.9892C74.4124 13.9192 74.6142 14.7359 75.0042 15.4556C75.3971 16.1676 75.9343 16.7303 76.6242 17.1533C77.2983 17.5549 78.0852 17.7653 79.0085 17.7653C79.9317 17.7653 80.7183 17.5549 81.3927 17.1533C82.0826 16.7303 82.6198 16.1676 83.0118 15.4556C83.4027 14.7359 83.6046 13.9192 83.6046 12.9892C83.6046 12.0583 83.4019 11.249 83.0135 10.5431H83.013ZM83.6698 15.8153C83.214 16.6433 82.5839 17.3032 81.78 17.7953C80.9761 18.2752 80.052 18.5153 79.008 18.5153C77.964 18.5153 77.0399 18.2752 76.236 17.7953C75.4321 17.3032 74.8019 16.6433 74.3458 15.8153C73.89 14.9754 73.6618 14.0332 73.6618 12.9892C73.6618 11.9452 73.89 11.0092 74.3458 10.1812C74.8019 9.34127 75.4321 8.68127 76.236 8.20117C77.0399 7.72127 77.964 7.48117 79.008 7.48117C80.052 7.48117 80.9761 7.72127 81.78 8.20117C82.5839 8.68127 83.214 9.34127 83.6698 10.1812C84.1259 11.0092 84.3538 11.9452 84.3538 12.9892C84.3538 14.0332 84.1259 14.9754 83.6698 15.8153V15.8153ZM98.4825 19.5772L95.3865 14.6092H92.7585V19.0913C92.7585 19.3552 92.6684 19.5772 92.4884 19.7572C92.3203 19.9372 92.0984 20.0273 91.8225 20.0273C91.5584 20.0273 91.3364 19.9372 91.1564 19.7572C90.9764 19.5772 90.8865 19.3552 90.8865 19.0913V6.90517C90.8865 6.62927 90.9764 6.40737 91.1564 6.23927C91.3364 6.05927 91.5584 5.96917 91.8225 5.96917H95.0625C95.9625 5.96917 96.7605 6.16127 97.4564 6.54517C98.1523 6.91727 98.6923 7.43327 99.0764 8.09317C99.4724 8.75327 99.6705 9.52127 99.6705 10.3972C99.6705 11.2612 99.4545 12.0234 99.0225 12.6833C98.7263 13.1272 98.3573 13.4977 97.9148 13.7953C97.7115 13.932 97.4924 14.0533 97.2585 14.1593L100.012 18.5873C100.228 18.9354 100.259 19.2653 100.103 19.5772C99.9464 19.8773 99.6765 20.0273 99.2924 20.0273C98.9443 20.0273 98.6745 19.8773 98.4825 19.5772V19.5772ZM98.3113 14.4323L100.649 18.191C100.974 18.7151 101.068 19.3237 100.773 19.9128L100.77 19.9178L100.768 19.9228C100.628 20.1904 100.423 20.4166 100.147 20.5699C99.8769 20.7202 99.5816 20.7768 99.2927 20.7768C98.6816 20.7768 98.1767 20.4903 97.8504 19.9809L97.8454 19.9739L94.9694 15.3591H93.5081V19.0912C93.5081 19.5416 93.3477 19.9535 93.0276 20.2783C92.7005 20.6228 92.2736 20.7772 91.8223 20.7772C91.3671 20.7772 90.9521 20.614 90.6253 20.2874C90.299 19.9612 90.1363 19.5459 90.1363 19.0912V6.90507C90.1363 6.45317 90.2899 6.02627 90.6349 5.69977C90.9598 5.37947 91.3716 5.21927 91.8223 5.21927H95.0623C96.0695 5.21927 96.9942 5.43467 97.8139 5.88597C98.6246 6.32057 99.2661 6.93087 99.7219 7.71177C100.195 8.50267 100.42 9.40627 100.42 10.3971C100.42 11.3926 100.169 12.3002 99.6494 13.0939L99.6464 13.0989C99.2886 13.635 98.8416 14.0797 98.3112 14.4321L98.3113 14.4323ZM102.233 7.99387L102.214 7.97347C101.915 7.65267 101.78 7.25407 101.78 6.83317C101.78 6.41307 101.916 6.00797 102.233 5.69077C102.551 5.37297 102.955 5.21937 103.394 5.21937H113.023C113.452 5.21937 113.855 5.36787 114.166 5.69077C114.489 6.00117 114.638 6.40457 114.638 6.83317C114.638 7.27077 114.484 7.67557 114.166 7.99367C113.848 8.31057 113.444 8.44717 113.023 8.44717H109.903V19.0919C109.903 19.5466 109.74 19.9619 109.414 20.2881C109.088 20.6147 108.672 20.7779 108.218 20.7779C107.762 20.7779 107.347 20.6147 107.021 20.2881C106.694 19.9619 106.532 19.5466 106.532 19.0919V8.44777H103.394C102.972 8.44777 102.574 8.31147 102.253 8.01347L102.233 7.99387ZM107.282 7.69717V19.0919C107.282 19.3558 107.371 19.5778 107.551 19.7578C107.731 19.9378 107.953 20.0279 108.218 20.0279C108.482 20.0279 108.703 19.9378 108.883 19.7578C109.063 19.5778 109.154 19.3558 109.154 19.0919V7.69777H113.023C113.275 7.69777 113.48 7.61977 113.635 7.46387C113.804 7.29577 113.887 7.08577 113.887 6.83377C113.887 6.58177 113.804 6.37787 113.635 6.22177C113.48 6.05387 113.275 5.96977 113.023 5.96977H103.394C103.142 5.96977 102.932 6.05387 102.763 6.22177C102.608 6.37787 102.53 6.58177 102.53 6.83377C102.53 7.08577 102.608 7.29577 102.763 7.46387C102.932 7.61977 103.142 7.69777 103.394 7.69777L107.282 7.69717ZM23.8177 15.3833L21.2436 8.97527L18.6156 15.3833H23.8177ZM19.7338 14.6333L21.2365 10.9695L22.7082 14.6333H19.7338ZM60.4311 20.7773C59.9764 20.7773 59.5612 20.6141 59.2349 20.2875C58.9083 19.9613 58.7451 19.546 58.7451 19.0913V6.90517C58.7451 6.45327 58.8993 6.02637 59.2437 5.69987C59.5688 5.37957 59.9807 5.21937 60.4311 5.21937H64.0311C65.0448 5.21937 65.9734 5.44327 66.796 5.91127C67.6121 6.37557 68.2505 7.02787 68.7006 7.85497C69.1669 8.67737 69.3892 9.61027 69.3892 10.6313C69.3892 11.6226 69.1641 12.5333 68.6967 13.3426C68.2437 14.148 67.6025 14.7801 66.7872 15.2299C65.9666 15.6829 65.0408 15.8992 64.0311 15.8992H62.1172V19.0913C62.1172 19.5417 61.9567 19.9536 61.6364 20.2784C61.3099 20.6229 60.883 20.7773 60.4311 20.7773V20.7773ZM61.0973 19.7572C60.9292 19.9372 60.7072 20.0273 60.4311 20.0273C60.1672 20.0273 59.9453 19.9372 59.7653 19.7572C59.5853 19.5772 59.4951 19.3552 59.4951 19.0913V6.90517C59.4951 6.62927 59.5853 6.40737 59.7653 6.23927C59.9453 6.05927 60.1672 5.96917 60.4311 5.96917H64.0311C64.9311 5.96917 65.7291 6.16727 66.4253 6.56327C67.1212 6.95927 67.6612 7.51117 68.0453 8.21927C68.4413 8.91517 68.6391 9.71937 68.6391 10.6313C68.6391 11.5072 68.4413 12.2873 68.0453 12.9713C67.6612 13.6553 67.1212 14.1893 66.4253 14.5732C65.7291 14.9573 64.9311 15.1492 64.0311 15.1492H61.3671V19.0913C61.3671 19.3552 61.2773 19.5772 61.0973 19.7572V19.7572ZM93.5083 12.1314H95.0625C95.7284 12.1314 96.2151 11.9497 96.5842 11.6328C96.9428 11.3136 97.1205 10.9221 97.1205 10.3972C97.1205 9.79077 96.9263 9.34547 96.5601 8.99567C96.189 8.64107 95.7097 8.44717 95.0625 8.44717H93.5083V12.1314ZM92.7585 12.8812V7.69717H95.0625C95.8784 7.69717 96.5505 7.94917 97.0785 8.45317C97.6064 8.95717 97.8705 9.60517 97.8705 10.3972C97.8705 11.1293 97.6064 11.7292 97.0785 12.1972C96.5505 12.6533 95.8784 12.8812 95.0625 12.8812H92.7585Z" fill="#121248"/>
</svg>
